<svg width="40" height="39" viewBox="0 0 40 39" fill="none" xmlns="http://www.w3.org/2000/svg">
<path d="M19.9999 38.25C9.41417 38.25 0.833252 29.8556 0.833252 19.5C0.833252 9.14438 9.41417 0.75 19.9999 0.75C30.5857 0.75 39.1666 9.14438 39.1666 19.5C39.1666 29.8556 30.5857 38.25 19.9999 38.25ZM17.3588 12.7781C17.2434 12.7028 17.1093 12.6596 16.9708 12.6529C16.8323 12.6463 16.6946 12.6765 16.5722 12.7404C16.4499 12.8042 16.3476 12.8994 16.2761 13.0157C16.2047 13.1319 16.1668 13.265 16.1666 13.4006V25.5994C16.1668 25.735 16.2047 25.8681 16.2761 25.9843C16.3476 26.1006 16.4499 26.1958 16.5722 26.2596C16.6946 26.3235 16.8323 26.3537 16.9708 26.3471C17.1093 26.3404 17.2434 26.2972 17.3588 26.2219L26.7102 20.1244C26.8153 20.0559 26.9016 19.9631 26.9612 19.8542C27.0209 19.7452 27.0521 19.6236 27.0521 19.5C27.0521 19.3764 27.0209 19.2548 26.9612 19.1458C26.9016 19.0369 26.8153 18.9441 26.7102 18.8756L17.3568 12.7781H17.3588Z" fill="white" fill-opacity="0.6"/>
</svg>
